<?xml version="1.0" encoding="UTF-8" standalone="no"?><svg xmlns="http://www.w3.org/2000/svg" xmlns:xlink="http://www.w3.org/1999/xlink" contentScriptType="application/ecmascript" contentStyleType="text/css" height="411px" preserveAspectRatio="none" style="width:902px;height:411px;" version="1.1" viewBox="0 0 902 411" width="902px" zoomAndPan="magnify"><defs><filter height="300%" id="f18myscz09ptji" width="300%" x="-1" y="-1"><feGaussianBlur result="blurOut" stdDeviation="2.0"/><feColorMatrix in="blurOut" result="blurOut2" type="matrix" values="0 0 0 0 0 0 0 0 0 0 0 0 0 0 0 0 0 0 .4 0"/><feOffset dx="4.0" dy="4.0" in="blurOut2" result="blurOut3"/><feBlend in="SourceGraphic" in2="blurOut3" mode="normal"/></filter></defs><g><text fill="#000000" font-family="sans-serif" font-size="18" lengthAdjust="spacingAndGlyphs" textLength="216" x="346.5" y="16.708">科研课题动态管理系统架构</text><!--class 科研课题动态管理系统--><rect fill="#FEFECE" filter="url(#f18myscz09ptji)" height="48" id="科研课题动态管理系统" style="stroke: #A80036; stroke-width: 1.5;" width="152" x="372" y="28.9531"/><ellipse cx="387" cy="44.9531" fill="#ADD1B2" rx="11" ry="11" style="stroke: #A80036; stroke-width: 1.0;"/><path d="M389.9688,50.5938 Q389.3906,50.8906 388.75,51.0391 Q388.1094,51.1875 387.4063,51.1875 Q384.9063,51.1875 383.5859,49.5391 Q382.2656,47.8906 382.2656,44.7656 Q382.2656,41.6406 383.5859,39.9844 Q384.9063,38.3281 387.4063,38.3281 Q388.1094,38.3281 388.7578,38.4844 Q389.4063,38.6406 389.9688,38.9375 L389.9688,41.6563 Q389.3438,41.0781 388.75,40.8047 Q388.1563,40.5313 387.5313,40.5313 Q386.1875,40.5313 385.5,41.6016 Q384.8125,42.6719 384.8125,44.7656 Q384.8125,46.8594 385.5,47.9297 Q386.1875,49 387.5313,49 Q388.1563,49 388.75,48.7266 Q389.3438,48.4531 389.9688,47.875 L389.9688,50.5938 Z "/><text fill="#000000" font-family="sans-serif" font-size="12" lengthAdjust="spacingAndGlyphs" textLength="120" x="401" y="49.1074">科研课题动态管理系统</text><line style="stroke: #A80036; stroke-width: 1.5;" x1="373" x2="523" y1="60.9531" y2="60.9531"/><line style="stroke: #A80036; stroke-width: 1.5;" x1="373" x2="523" y1="68.9531" y2="68.9531"/><!--class 个人管理--><rect fill="#FEFECE" filter="url(#f18myscz09ptji)" height="48" id="个人管理" style="stroke: #A80036; stroke-width: 1.5;" width="80" x="121" y="136.9531"/><ellipse cx="136" cy="152.9531" fill="#ADD1B2" rx="11" ry="11" style="stroke: #A80036; stroke-width: 1.0;"/><path d="M138.9688,158.5938 Q138.3906,158.8906 137.75,159.0391 Q137.1094,159.1875 136.4063,159.1875 Q133.9063,159.1875 132.5859,157.5391 Q131.2656,155.8906 131.2656,152.7656 Q131.2656,149.6406 132.5859,147.9844 Q133.9063,146.3281 136.4063,146.3281 Q137.1094,146.3281 137.7578,146.4844 Q138.4063,146.6406 138.9688,146.9375 L138.9688,149.6563 Q138.3438,149.0781 137.75,148.8047 Q137.1563,148.5313 136.5313,148.5313 Q135.1875,148.5313 134.5,149.6016 Q133.8125,150.6719 133.8125,152.7656 Q133.8125,154.8594 134.5,155.9297 Q135.1875,157 136.5313,157 Q137.1563,157 137.75,156.7266 Q138.3438,156.4531 138.9688,155.875 L138.9688,158.5938 Z "/><text fill="#000000" font-family="sans-serif" font-size="12" lengthAdjust="spacingAndGlyphs" textLength="48" x="150" y="157.1074">个人管理</text><line style="stroke: #A80036; stroke-width: 1.5;" x1="122" x2="200" y1="168.9531" y2="168.9531"/><line style="stroke: #A80036; stroke-width: 1.5;" x1="122" x2="200" y1="176.9531" y2="176.9531"/><!--class 个人信息--><rect fill="#FEFECE" filter="url(#f18myscz09ptji)" height="48" id="个人信息" style="stroke: #A80036; stroke-width: 1.5;" width="80" x="6" y="244.9531"/><ellipse cx="21" cy="260.9531" fill="#ADD1B2" rx="11" ry="11" style="stroke: #A80036; stroke-width: 1.0;"/><path d="M23.9688,266.5938 Q23.3906,266.8906 22.75,267.0391 Q22.1094,267.1875 21.4063,267.1875 Q18.9063,267.1875 17.5859,265.5391 Q16.2656,263.8906 16.2656,260.7656 Q16.2656,257.6406 17.5859,255.9844 Q18.9063,254.3281 21.4063,254.3281 Q22.1094,254.3281 22.7578,254.4844 Q23.4063,254.6406 23.9688,254.9375 L23.9688,257.6563 Q23.3438,257.0781 22.75,256.8047 Q22.1563,256.5313 21.5313,256.5313 Q20.1875,256.5313 19.5,257.6016 Q18.8125,258.6719 18.8125,260.7656 Q18.8125,262.8594 19.5,263.9297 Q20.1875,265 21.5313,265 Q22.1563,265 22.75,264.7266 Q23.3438,264.4531 23.9688,263.875 L23.9688,266.5938 Z "/><text fill="#000000" font-family="sans-serif" font-size="12" lengthAdjust="spacingAndGlyphs" textLength="48" x="35" y="265.1074">个人信息</text><line style="stroke: #A80036; stroke-width: 1.5;" x1="7" x2="85" y1="276.9531" y2="276.9531"/><line style="stroke: #A80036; stroke-width: 1.5;" x1="7" x2="85" y1="284.9531" y2="284.9531"/><!--class 修改信息--><rect fill="#FEFECE" filter="url(#f18myscz09ptji)" height="48" id="修改信息" style="stroke: #A80036; stroke-width: 1.5;" width="80" x="6" y="352.9531"/><ellipse cx="21" cy="368.9531" fill="#ADD1B2" rx="11" ry="11" style="stroke: #A80036; stroke-width: 1.0;"/><path d="M23.9688,374.5938 Q23.3906,374.8906 22.75,375.0391 Q22.1094,375.1875 21.4063,375.1875 Q18.9063,375.1875 17.5859,373.5391 Q16.2656,371.8906 16.2656,368.7656 Q16.2656,365.6406 17.5859,363.9844 Q18.9063,362.3281 21.4063,362.3281 Q22.1094,362.3281 22.7578,362.4844 Q23.4063,362.6406 23.9688,362.9375 L23.9688,365.6563 Q23.3438,365.0781 22.75,364.8047 Q22.1563,364.5313 21.5313,364.5313 Q20.1875,364.5313 19.5,365.6016 Q18.8125,366.6719 18.8125,368.7656 Q18.8125,370.8594 19.5,371.9297 Q20.1875,373 21.5313,373 Q22.1563,373 22.75,372.7266 Q23.3438,372.4531 23.9688,371.875 L23.9688,374.5938 Z "/><text fill="#000000" font-family="sans-serif" font-size="12" lengthAdjust="spacingAndGlyphs" textLength="48" x="35" y="373.1074">修改信息</text><line style="stroke: #A80036; stroke-width: 1.5;" x1="7" x2="85" y1="384.9531" y2="384.9531"/><line style="stroke: #A80036; stroke-width: 1.5;" x1="7" x2="85" y1="392.9531" y2="392.9531"/><!--class 修改密码--><rect fill="#FEFECE" filter="url(#f18myscz09ptji)" height="48" id="修改密码" style="stroke: #A80036; stroke-width: 1.5;" width="80" x="121" y="244.9531"/><ellipse cx="136" cy="260.9531" fill="#ADD1B2" rx="11" ry="11" style="stroke: #A80036; stroke-width: 1.0;"/><path d="M138.9688,266.5938 Q138.3906,266.8906 137.75,267.0391 Q137.1094,267.1875 136.4063,267.1875 Q133.9063,267.1875 132.5859,265.5391 Q131.2656,263.8906 131.2656,260.7656 Q131.2656,257.6406 132.5859,255.9844 Q133.9063,254.3281 136.4063,254.3281 Q137.1094,254.3281 137.7578,254.4844 Q138.4063,254.6406 138.9688,254.9375 L138.9688,257.6563 Q138.3438,257.0781 137.75,256.8047 Q137.1563,256.5313 136.5313,256.5313 Q135.1875,256.5313 134.5,257.6016 Q133.8125,258.6719 133.8125,260.7656 Q133.8125,262.8594 134.5,263.9297 Q135.1875,265 136.5313,265 Q137.1563,265 137.75,264.7266 Q138.3438,264.4531 138.9688,263.875 L138.9688,266.5938 Z "/><text fill="#000000" font-family="sans-serif" font-size="12" lengthAdjust="spacingAndGlyphs" textLength="48" x="150" y="265.1074">修改密码</text><line style="stroke: #A80036; stroke-width: 1.5;" x1="122" x2="200" y1="276.9531" y2="276.9531"/><line style="stroke: #A80036; stroke-width: 1.5;" x1="122" x2="200" y1="284.9531" y2="284.9531"/><!--class 课题管理--><rect fill="#FEFECE" filter="url(#f18myscz09ptji)" height="48" id="课题管理" style="stroke: #A80036; stroke-width: 1.5;" width="80" x="408" y="136.9531"/><ellipse cx="423" cy="152.9531" fill="#ADD1B2" rx="11" ry="11" style="stroke: #A80036; stroke-width: 1.0;"/><path d="M425.9688,158.5938 Q425.3906,158.8906 424.75,159.0391 Q424.1094,159.1875 423.4063,159.1875 Q420.9063,159.1875 419.5859,157.5391 Q418.2656,155.8906 418.2656,152.7656 Q418.2656,149.6406 419.5859,147.9844 Q420.9063,146.3281 423.4063,146.3281 Q424.1094,146.3281 424.7578,146.4844 Q425.4063,146.6406 425.9688,146.9375 L425.9688,149.6563 Q425.3438,149.0781 424.75,148.8047 Q424.1563,148.5313 423.5313,148.5313 Q422.1875,148.5313 421.5,149.6016 Q420.8125,150.6719 420.8125,152.7656 Q420.8125,154.8594 421.5,155.9297 Q422.1875,157 423.5313,157 Q424.1563,157 424.75,156.7266 Q425.3438,156.4531 425.9688,155.875 L425.9688,158.5938 Z "/><text fill="#000000" font-family="sans-serif" font-size="12" lengthAdjust="spacingAndGlyphs" textLength="48" x="437" y="157.1074">课题管理</text><line style="stroke: #A80036; stroke-width: 1.5;" x1="409" x2="487" y1="168.9531" y2="168.9531"/><line style="stroke: #A80036; stroke-width: 1.5;" x1="409" x2="487" y1="176.9531" y2="176.9531"/><!--class 课题申报--><rect fill="#FEFECE" filter="url(#f18myscz09ptji)" height="48" id="课题申报" style="stroke: #A80036; stroke-width: 1.5;" width="80" x="236" y="244.9531"/><ellipse cx="251" cy="260.9531" fill="#ADD1B2" rx="11" ry="11" style="stroke: #A80036; stroke-width: 1.0;"/><path d="M253.9688,266.5938 Q253.3906,266.8906 252.75,267.0391 Q252.1094,267.1875 251.4063,267.1875 Q248.9063,267.1875 247.5859,265.5391 Q246.2656,263.8906 246.2656,260.7656 Q246.2656,257.6406 247.5859,255.9844 Q248.9063,254.3281 251.4063,254.3281 Q252.1094,254.3281 252.7578,254.4844 Q253.4063,254.6406 253.9688,254.9375 L253.9688,257.6563 Q253.3438,257.0781 252.75,256.8047 Q252.1563,256.5313 251.5313,256.5313 Q250.1875,256.5313 249.5,257.6016 Q248.8125,258.6719 248.8125,260.7656 Q248.8125,262.8594 249.5,263.9297 Q250.1875,265 251.5313,265 Q252.1563,265 252.75,264.7266 Q253.3438,264.4531 253.9688,263.875 L253.9688,266.5938 Z "/><text fill="#000000" font-family="sans-serif" font-size="12" lengthAdjust="spacingAndGlyphs" textLength="48" x="265" y="265.1074">课题申报</text><line style="stroke: #A80036; stroke-width: 1.5;" x1="237" x2="315" y1="276.9531" y2="276.9531"/><line style="stroke: #A80036; stroke-width: 1.5;" x1="237" x2="315" y1="284.9531" y2="284.9531"/><!--class 显示课题--><rect fill="#FEFECE" filter="url(#f18myscz09ptji)" height="48" id="显示课题" style="stroke: #A80036; stroke-width: 1.5;" width="80" x="351" y="244.9531"/><ellipse cx="366" cy="260.9531" fill="#ADD1B2" rx="11" ry="11" style="stroke: #A80036; stroke-width: 1.0;"/><path d="M368.9688,266.5938 Q368.3906,266.8906 367.75,267.0391 Q367.1094,267.1875 366.4063,267.1875 Q363.9063,267.1875 362.5859,265.5391 Q361.2656,263.8906 361.2656,260.7656 Q361.2656,257.6406 362.5859,255.9844 Q363.9063,254.3281 366.4063,254.3281 Q367.1094,254.3281 367.7578,254.4844 Q368.4063,254.6406 368.9688,254.9375 L368.9688,257.6563 Q368.3438,257.0781 367.75,256.8047 Q367.1563,256.5313 366.5313,256.5313 Q365.1875,256.5313 364.5,257.6016 Q363.8125,258.6719 363.8125,260.7656 Q363.8125,262.8594 364.5,263.9297 Q365.1875,265 366.5313,265 Q367.1563,265 367.75,264.7266 Q368.3438,264.4531 368.9688,263.875 L368.9688,266.5938 Z "/><text fill="#000000" font-family="sans-serif" font-size="12" lengthAdjust="spacingAndGlyphs" textLength="48" x="380" y="265.1074">显示课题</text><line style="stroke: #A80036; stroke-width: 1.5;" x1="352" x2="430" y1="276.9531" y2="276.9531"/><line style="stroke: #A80036; stroke-width: 1.5;" x1="352" x2="430" y1="284.9531" y2="284.9531"/><!--class 修改课题--><rect fill="#FEFECE" filter="url(#f18myscz09ptji)" height="48" id="修改课题" style="stroke: #A80036; stroke-width: 1.5;" width="80" x="351" y="352.9531"/><ellipse cx="366" cy="368.9531" fill="#ADD1B2" rx="11" ry="11" style="stroke: #A80036; stroke-width: 1.0;"/><path d="M368.9688,374.5938 Q368.3906,374.8906 367.75,375.0391 Q367.1094,375.1875 366.4063,375.1875 Q363.9063,375.1875 362.5859,373.5391 Q361.2656,371.8906 361.2656,368.7656 Q361.2656,365.6406 362.5859,363.9844 Q363.9063,362.3281 366.4063,362.3281 Q367.1094,362.3281 367.7578,362.4844 Q368.4063,362.6406 368.9688,362.9375 L368.9688,365.6563 Q368.3438,365.0781 367.75,364.8047 Q367.1563,364.5313 366.5313,364.5313 Q365.1875,364.5313 364.5,365.6016 Q363.8125,366.6719 363.8125,368.7656 Q363.8125,370.8594 364.5,371.9297 Q365.1875,373 366.5313,373 Q367.1563,373 367.75,372.7266 Q368.3438,372.4531 368.9688,371.875 L368.9688,374.5938 Z "/><text fill="#000000" font-family="sans-serif" font-size="12" lengthAdjust="spacingAndGlyphs" textLength="48" x="380" y="373.1074">修改课题</text><line style="stroke: #A80036; stroke-width: 1.5;" x1="352" x2="430" y1="384.9531" y2="384.9531"/><line style="stroke: #A80036; stroke-width: 1.5;" x1="352" x2="430" y1="392.9531" y2="392.9531"/><!--class 更新进度--><rect fill="#FEFECE" filter="url(#f18myscz09ptji)" height="48" id="更新进度" style="stroke: #A80036; stroke-width: 1.5;" width="80" x="466" y="244.9531"/><ellipse cx="481" cy="260.9531" fill="#ADD1B2" rx="11" ry="11" style="stroke: #A80036; stroke-width: 1.0;"/><path d="M483.9688,266.5938 Q483.3906,266.8906 482.75,267.0391 Q482.1094,267.1875 481.4063,267.1875 Q478.9063,267.1875 477.5859,265.5391 Q476.2656,263.8906 476.2656,260.7656 Q476.2656,257.6406 477.5859,255.9844 Q478.9063,254.3281 481.4063,254.3281 Q482.1094,254.3281 482.7578,254.4844 Q483.4063,254.6406 483.9688,254.9375 L483.9688,257.6563 Q483.3438,257.0781 482.75,256.8047 Q482.1563,256.5313 481.5313,256.5313 Q480.1875,256.5313 479.5,257.6016 Q478.8125,258.6719 478.8125,260.7656 Q478.8125,262.8594 479.5,263.9297 Q480.1875,265 481.5313,265 Q482.1563,265 482.75,264.7266 Q483.3438,264.4531 483.9688,263.875 L483.9688,266.5938 Z "/><text fill="#000000" font-family="sans-serif" font-size="12" lengthAdjust="spacingAndGlyphs" textLength="48" x="495" y="265.1074">更新进度</text><line style="stroke: #A80036; stroke-width: 1.5;" x1="467" x2="545" y1="276.9531" y2="276.9531"/><line style="stroke: #A80036; stroke-width: 1.5;" x1="467" x2="545" y1="284.9531" y2="284.9531"/><!--class 结题申请--><rect fill="#FEFECE" filter="url(#f18myscz09ptji)" height="48" id="结题申请" style="stroke: #A80036; stroke-width: 1.5;" width="80" x="581" y="244.9531"/><ellipse cx="596" cy="260.9531" fill="#ADD1B2" rx="11" ry="11" style="stroke: #A80036; stroke-width: 1.0;"/><path d="M598.9688,266.5938 Q598.3906,266.8906 597.75,267.0391 Q597.1094,267.1875 596.4063,267.1875 Q593.9063,267.1875 592.5859,265.5391 Q591.2656,263.8906 591.2656,260.7656 Q591.2656,257.6406 592.5859,255.9844 Q593.9063,254.3281 596.4063,254.3281 Q597.1094,254.3281 597.7578,254.4844 Q598.4063,254.6406 598.9688,254.9375 L598.9688,257.6563 Q598.3438,257.0781 597.75,256.8047 Q597.1563,256.5313 596.5313,256.5313 Q595.1875,256.5313 594.5,257.6016 Q593.8125,258.6719 593.8125,260.7656 Q593.8125,262.8594 594.5,263.9297 Q595.1875,265 596.5313,265 Q597.1563,265 597.75,264.7266 Q598.3438,264.4531 598.9688,263.875 L598.9688,266.5938 Z "/><text fill="#000000" font-family="sans-serif" font-size="12" lengthAdjust="spacingAndGlyphs" textLength="48" x="610" y="265.1074">结题申请</text><line style="stroke: #A80036; stroke-width: 1.5;" x1="582" x2="660" y1="276.9531" y2="276.9531"/><line style="stroke: #A80036; stroke-width: 1.5;" x1="582" x2="660" y1="284.9531" y2="284.9531"/><!--class 系统管理--><rect fill="#FEFECE" filter="url(#f18myscz09ptji)" height="48" id="系统管理" style="stroke: #A80036; stroke-width: 1.5;" width="80" x="696" y="136.9531"/><ellipse cx="711" cy="152.9531" fill="#ADD1B2" rx="11" ry="11" style="stroke: #A80036; stroke-width: 1.0;"/><path d="M713.9688,158.5938 Q713.3906,158.8906 712.75,159.0391 Q712.1094,159.1875 711.4063,159.1875 Q708.9063,159.1875 707.5859,157.5391 Q706.2656,155.8906 706.2656,152.7656 Q706.2656,149.6406 707.5859,147.9844 Q708.9063,146.3281 711.4063,146.3281 Q712.1094,146.3281 712.7578,146.4844 Q713.4063,146.6406 713.9688,146.9375 L713.9688,149.6563 Q713.3438,149.0781 712.75,148.8047 Q712.1563,148.5313 711.5313,148.5313 Q710.1875,148.5313 709.5,149.6016 Q708.8125,150.6719 708.8125,152.7656 Q708.8125,154.8594 709.5,155.9297 Q710.1875,157 711.5313,157 Q712.1563,157 712.75,156.7266 Q713.3438,156.4531 713.9688,155.875 L713.9688,158.5938 Z "/><text fill="#000000" font-family="sans-serif" font-size="12" lengthAdjust="spacingAndGlyphs" textLength="48" x="725" y="157.1074">系统管理</text><line style="stroke: #A80036; stroke-width: 1.5;" x1="697" x2="775" y1="168.9531" y2="168.9531"/><line style="stroke: #A80036; stroke-width: 1.5;" x1="697" x2="775" y1="176.9531" y2="176.9531"/><!--class 用户管理--><rect fill="#FEFECE" filter="url(#f18myscz09ptji)" height="48" id="用户管理" style="stroke: #A80036; stroke-width: 1.5;" width="80" x="696" y="244.9531"/><ellipse cx="711" cy="260.9531" fill="#ADD1B2" rx="11" ry="11" style="stroke: #A80036; stroke-width: 1.0;"/><path d="M713.9688,266.5938 Q713.3906,266.8906 712.75,267.0391 Q712.1094,267.1875 711.4063,267.1875 Q708.9063,267.1875 707.5859,265.5391 Q706.2656,263.8906 706.2656,260.7656 Q706.2656,257.6406 707.5859,255.9844 Q708.9063,254.3281 711.4063,254.3281 Q712.1094,254.3281 712.7578,254.4844 Q713.4063,254.6406 713.9688,254.9375 L713.9688,257.6563 Q713.3438,257.0781 712.75,256.8047 Q712.1563,256.5313 711.5313,256.5313 Q710.1875,256.5313 709.5,257.6016 Q708.8125,258.6719 708.8125,260.7656 Q708.8125,262.8594 709.5,263.9297 Q710.1875,265 711.5313,265 Q712.1563,265 712.75,264.7266 Q713.3438,264.4531 713.9688,263.875 L713.9688,266.5938 Z "/><text fill="#000000" font-family="sans-serif" font-size="12" lengthAdjust="spacingAndGlyphs" textLength="48" x="725" y="265.1074">用户管理</text><line style="stroke: #A80036; stroke-width: 1.5;" x1="697" x2="775" y1="276.9531" y2="276.9531"/><line style="stroke: #A80036; stroke-width: 1.5;" x1="697" x2="775" y1="284.9531" y2="284.9531"/><!--class 权限管理--><rect fill="#FEFECE" filter="url(#f18myscz09ptji)" height="48" id="权限管理" style="stroke: #A80036; stroke-width: 1.5;" width="80" x="811" y="244.9531"/><ellipse cx="826" cy="260.9531" fill="#ADD1B2" rx="11" ry="11" style="stroke: #A80036; stroke-width: 1.0;"/><path d="M828.9688,266.5938 Q828.3906,266.8906 827.75,267.0391 Q827.1094,267.1875 826.4063,267.1875 Q823.9063,267.1875 822.5859,265.5391 Q821.2656,263.8906 821.2656,260.7656 Q821.2656,257.6406 822.5859,255.9844 Q823.9063,254.3281 826.4063,254.3281 Q827.1094,254.3281 827.7578,254.4844 Q828.4063,254.6406 828.9688,254.9375 L828.9688,257.6563 Q828.3438,257.0781 827.75,256.8047 Q827.1563,256.5313 826.5313,256.5313 Q825.1875,256.5313 824.5,257.6016 Q823.8125,258.6719 823.8125,260.7656 Q823.8125,262.8594 824.5,263.9297 Q825.1875,265 826.5313,265 Q827.1563,265 827.75,264.7266 Q828.3438,264.4531 828.9688,263.875 L828.9688,266.5938 Z "/><text fill="#000000" font-family="sans-serif" font-size="12" lengthAdjust="spacingAndGlyphs" textLength="48" x="840" y="265.1074">权限管理</text><line style="stroke: #A80036; stroke-width: 1.5;" x1="812" x2="890" y1="276.9531" y2="276.9531"/><line style="stroke: #A80036; stroke-width: 1.5;" x1="812" x2="890" y1="284.9531" y2="284.9531"/><!--link 科研课题动态管理系统 to 个人管理--><path d="M385.725,76.9531 C331.534,96.9681 254.298,125.4951 205.944,143.3531 " fill="none" id="科研课题动态管理系统-个人管理" style="stroke: #A80036; stroke-width: 1.0;"/><polygon fill="#A80036" points="201.067,145.1551,210.8953,145.7906,205.7576,143.4235,208.1247,138.2857,201.067,145.1551" style="stroke: #A80036; stroke-width: 1.0;"/><!--link 个人管理 to 个人信息--><path d="M136.047,184.9531 C118.087,201.5081 93.8103,223.8841 74.9896,241.2321 " fill="none" id="个人管理-个人信息" style="stroke: #A80036; stroke-width: 1.0;"/><polygon fill="#A80036" points="71.3017,244.6311,80.63,241.4715,74.9778,241.2419,75.2073,235.5897,71.3017,244.6311" style="stroke: #A80036; stroke-width: 1.0;"/><!--link 个人信息 to 修改信息--><path d="M46,292.9531 C46,308.9561 46,330.3992 46,347.4811 " fill="none" id="个人信息-修改信息" style="stroke: #A80036; stroke-width: 1.0;"/><polygon fill="#A80036" points="46,352.6315,50,343.6315,46,347.6315,42,343.6315,46,352.6315" style="stroke: #A80036; stroke-width: 1.0;"/><!--link 个人管理 to 修改密码--><path d="M161,184.9531 C161,200.9561 161,222.3991 161,239.4811 " fill="none" id="个人管理-修改密码" style="stroke: #A80036; stroke-width: 1.0;"/><polygon fill="#A80036" points="161,244.6311,165,235.6311,161,239.6311,157,235.6311,161,244.6311" style="stroke: #A80036; stroke-width: 1.0;"/><!--link 科研课题动态管理系统 to 课题管理--><path d="M448,76.9531 C448,92.9561 448,114.3991 448,131.4811 " fill="none" id="科研课题动态管理系统-课题管理" style="stroke: #A80036; stroke-width: 1.0;"/><polygon fill="#A80036" points="448,136.6311,452,127.6311,448,131.6311,444,127.6311,448,136.6311" style="stroke: #A80036; stroke-width: 1.0;"/><!--link 课题管理 to 课题申报--><path d="M410.679,184.9531 C383.387,201.7721 346.344,224.6021 318.014,242.0601 " fill="none" id="课题管理-课题申报" style="stroke: #A80036; stroke-width: 1.0;"/><polygon fill="#A80036" points="313.545,244.8151,323.3054,243.4983,317.8015,242.1918,319.1081,236.6879,313.545,244.8151" style="stroke: #A80036; stroke-width: 1.0;"/><!--link 课题管理 to 显示课题--><path d="M435.632,184.9531 C426.953,201.0941 415.297,222.7691 406.073,239.9221 " fill="none" id="课题管理-显示课题" style="stroke: #A80036; stroke-width: 1.0;"/><polygon fill="#A80036" points="403.541,244.6311,411.3274,238.6003,405.9098,240.2279,404.2822,234.8102,403.541,244.6311" style="stroke: #A80036; stroke-width: 1.0;"/><!--link 显示课题 to 修改课题--><path d="M391,292.9531 C391,308.9561 391,330.3992 391,347.4811 " fill="none" id="显示课题-修改课题" style="stroke: #A80036; stroke-width: 1.0;"/><polygon fill="#A80036" points="391,352.6315,395,343.6315,391,347.6315,387,343.6315,391,352.6315" style="stroke: #A80036; stroke-width: 1.0;"/><!--link 课题管理 to 更新进度--><path d="M460.585,184.9531 C469.417,201.0941 481.277,222.7691 490.662,239.9221 " fill="none" id="课题管理-更新进度" style="stroke: #A80036; stroke-width: 1.0;"/><polygon fill="#A80036" points="493.239,244.6311,492.4275,234.8158,490.8387,240.2449,485.4096,238.6562,493.239,244.6311" style="stroke: #A80036; stroke-width: 1.0;"/><!--link 课题管理 to 结题申请--><path d="M485.538,184.9531 C512.988,201.7721 550.247,224.6021 578.741,242.0601 " fill="none" id="课题管理-结题申请" style="stroke: #A80036; stroke-width: 1.0;"/><polygon fill="#A80036" points="583.237,244.8151,577.6508,236.7037,578.973,242.2039,573.4729,243.5261,583.237,244.8151" style="stroke: #A80036; stroke-width: 1.0;"/><!--link 科研课题动态管理系统 to 系统管理--><path d="M510.492,76.9531 C564.872,96.9681 642.377,125.4951 690.899,143.3531 " fill="none" id="科研课题动态管理系统-系统管理" style="stroke: #A80036; stroke-width: 1.0;"/><polygon fill="#A80036" points="695.794,145.1551,688.7301,138.2921,691.1019,143.4277,685.9662,145.7995,695.794,145.1551" style="stroke: #A80036; stroke-width: 1.0;"/><!--link 系统管理 to 用户管理--><path d="M736,184.9531 C736,200.9561 736,222.3991 736,239.4811 " fill="none" id="系统管理-用户管理" style="stroke: #A80036; stroke-width: 1.0;"/><polygon fill="#A80036" points="736,244.6311,740,235.6311,736,239.6311,732,235.6311,736,244.6311" style="stroke: #A80036; stroke-width: 1.0;"/><!--link 系统管理 to 权限管理--><path d="M760.953,184.9531 C778.913,201.5081 803.19,223.8841 822.01,241.2321 " fill="none" id="系统管理-权限管理" style="stroke: #A80036; stroke-width: 1.0;"/><polygon fill="#A80036" points="825.698,244.6311,821.792,235.5899,822.0218,241.2421,816.3696,241.4718,825.698,244.6311" style="stroke: #A80036; stroke-width: 1.0;"/><!--
@startuml
title 科研课题动态管理系统架构

科研课题动态管理系统 -d-> 个人管理
	个人管理 -d-> 个人信息
		个人信息 -d-> 修改信息
	个人管理 -d-> 修改密码
科研课题动态管理系统 -d-> 课题管理
	课题管理 -d-> 课题申报
	课题管理 -d-> 显示课题
		显示课题 -d-> 修改课题
	课题管理 -d-> 更新进度
	课题管理 -d-> 结题申请
科研课题动态管理系统 -d-> 系统管理
	系统管理 -d-> 用户管理
	系统管理 -d-> 权限管理
@enduml

PlantUML version 1.2018.03(Thu Apr 05 16:59:15 UTC 2018)
(GPL source distribution)
Java Runtime: OpenJDK Runtime Environment
JVM: OpenJDK 64-Bit Server VM
Java Version: 1.8.0_162-8u162-b12-1~deb9u1-b12
Operating System: Linux
OS Version: 4.15.0-20-generic
Default Encoding: UTF-8
Language: en
Country: null
--></g></svg>